<svg width="64" height="64" viewBox="0 0 64 64" fill="none" xmlns="http://www.w3.org/2000/svg">
<g clip-path="url(#clip0_1545_2)">
<path d="M10.0234 37.9294C5.66907 43.0228 3 49.8896 3 57.4443C3 59.408 4.44264 60.9999 6.22222 60.9999H57.7778C59.5574 60.9999 61 59.408 61 57.4443C61 45.2331 54.0266 34.8191 44.2344 30.7866" stroke="black" stroke-width="6" stroke-linecap="round"/>
<path d="M39.5839 25C42.3013 22.7143 44.0282 19.2889 44.0282 15.4602C44.0282 8.57861 38.4496 3 31.568 3C27.7235 3 24.2857 4.74113 22 7.47788" stroke="black" stroke-width="6" stroke-linecap="round"/>
<path d="M3 30H31M31 30L17 16M31 30L17 44" stroke="black" stroke-width="6" stroke-linecap="round" stroke-linejoin="round"/>
</g>
<defs>
<clipPath id="clip0_1545_2">
<rect width="64" height="64" fill="white"/>
</clipPath>
</defs>
</svg>
