<svg width="64" height="64" viewBox="0 0 64 64" fill="none" xmlns="http://www.w3.org/2000/svg">
<g clip-path="url(#clip0_1551_9)">
<path d="M61 32C61 48.0163 48.0163 61 32 61C15.9837 61 3 48.0163 3 32M61 32C61 21.2659 55.1681 11.8939 46.5 6.87968C42.2345 4.41222 37.2822 3 32 3C26.7178 3 21.7655 4.41222 17.5 6.87968C8.83188 11.8939 3 21.2659 3 32M61 32H46.5M3 32H17.5M17.5 32V31.5323C17.5 23.5241 23.9919 17.0323 32 17.0323C40.0081 17.0323 46.5 23.5241 46.5 31.5323V32M17.5 32H46.5M18.9032 39.4839H45.0968M24.5161 46.9677H39.4839" stroke="black" stroke-width="6" stroke-linecap="round"/>
</g>
<defs>
<clipPath id="clip0_1551_9">
<rect width="64" height="64" fill="white"/>
</clipPath>
</defs>
</svg>
