<svg xmlns="http://www.w3.org/2000/svg" width="64" height="64" fill="none"><g stroke="#639" stroke-linecap="round" stroke-width="6" clip-path="url(#a)"><path d="M10.023 37.93C5.67 43.022 3 49.89 3 57.443 3 59.408 4.443 61 6.222 61h51.556C59.558 61 61 59.408 61 57.444c0-12.21-6.973-22.625-16.766-26.657M39.584 25a12.43 12.43 0 0 0 4.444-9.54C44.028 8.58 38.45 3 31.568 3A12.43 12.43 0 0 0 22 7.478"/><path stroke-linejoin="round" d="M3 30h28m0 0L17 16m14 14L17 44"/></g><defs><clipPath id="a"><path fill="#fff" d="M0 0h64v64H0z"/></clipPath></defs></svg>