<svg xmlns="http://www.w3.org/2000/svg" width="175" height="55" fill="none"><g stroke-linecap="round" stroke-linejoin="round" clip-path="url(#a)"><path stroke="#202020" stroke-width="4" d="M30.945 52.73h-12c-8.836 0-16-7.163-16-16v0c0-8.837 7.164-16 16-16h12M76.945 20.73v24a8 8 0 1 1-16 0m0 0v-16m0 16a8 8 0 1 1-16 0v-24"/><path stroke="#639" stroke-width="6" d="M91.945 35.73c0 8.837 7.164 16 16 16v0c8.837 0 16-7.163 16-16v-32M171.945 3.73h-20c-6.627 0-12 5.373-12 12v0c0 6.627 5.373 12 12 12h8c6.628 0 12 5.373 12 12v0c0 6.627-5.372 12-12 12h-20"/></g><defs><clipPath id="a"><path fill="#fff" d="M.945.73h174v54h-174z"/></clipPath></defs></svg>