<svg xmlns="http://www.w3.org/2000/svg" width="64" height="64" fill="none"><path stroke="#000" stroke-linecap="round" stroke-linejoin="round" stroke-width="6" d="M32 14c21.407 0 29 18 29 18s-7.593 18-29 18C10.594 50 3 32 3 32s7.594-18 29-18m0 0V8m-14 8-3-5.196M46 16l3-5.196"/><path fill="#000" fill-rule="evenodd" d="M44 32c0 6.627-5.373 12-12 12s-12-5.373-12-12 5.373-12 12-12 12 5.373 12 12m-13.108-7.388-4.433 5.91c-.612.817-.612 2.14 0 2.956l4.433 5.91c.612.816 1.604.816 2.216 0l4.433-5.91c.612-.817.612-2.14 0-2.956l-4.433-5.91c-.612-.816-1.604-.816-2.216 0" clip-rule="evenodd"/></svg>