<svg width="64" height="64" viewBox="0 0 64 64" fill="none" xmlns="http://www.w3.org/2000/svg">
<g clip-path="url(#clip0_1_11)">
<path d="M32 61C48.0163 61 61 48.0163 61 32C61 15.9837 48.0163 3 32 3M32 61C15.9837 61 3 48.0163 3 32C3 15.9837 15.9837 3 32 3M32 61V46.5M32 3V17.5M32 46.5C23.9919 46.5 17.5 40.0081 17.5 32C17.5 23.9919 23.9919 17.5 32 17.5M32 46.5V39.25M32 46.5H42.875M32 17.5V32V39.25M32 39.25H39.25" stroke="black" stroke-width="6" stroke-linecap="round" stroke-linejoin="round"/>
</g>
<defs>
<clipPath id="clip0_1_11">
<rect width="64" height="64" fill="white"/>
</clipPath>
</defs>
</svg>
